<svg id="Filled" height="512" viewBox="0 0 512 512" width="512" xmlns="http://www.w3.org/2000/svg"><circle cx="256" cy="256" fill="#eb423f" r="56"/><g fill="#f7b030"><circle cx="64" cy="296" r="24"/><circle cx="384" cy="416" r="24"/><circle cx="312" cy="64" r="24"/></g><path d="m468.43 116.47c-20.951-27.931-67.711-35.652-128.887-21.514-1.312-3.145-2.667-6.234-4.064-9.243a31.984 31.984 0 0 0 -35.7-51.282c-13.719-12.221-28.421-18.431-43.779-18.431-17.639 0-34.385 8.137-49.772 24.185-12.89 13.442-24.228 31.855-33.773 54.77-61.176-14.136-107.935-6.415-128.884 21.514-23.829 31.764-10.197 83.623 36.367 139.531q-3.81 4.575-7.377 9.17a31.977 31.977 0 0 0 -31.646 52.954c-12.76 31.346-11.878 58.02 2.655 77.4 14.094 18.789 39.858 28.436 73.84 28.435 16.534 0 35.021-2.293 55.045-6.921 9.543 22.915 20.883 41.329 33.773 54.771 15.387 16.054 32.133 24.191 49.772 24.191s34.385-8.137 49.772-24.185c12.888-13.441 24.227-31.851 33.77-54.763q6.419 1.483 12.679 2.652a32 32 0 0 0 63.075 2.965c23.9-3.246 42.2-12.549 53.133-27.138 23.828-31.763 10.2-83.622-36.365-139.531 46.563-55.91 60.193-107.768 36.366-139.53zm-12.8 9.6c18.536 24.709 5.376 69.34-34.231 117.694a464.789 464.789 0 0 0 -57.492-52.894c-3.758-29.113-10.125-56.789-18.577-80.817 52.908-11.8 93.795-5.987 110.3 16.018zm-125.9 271.985a412.988 412.988 0 0 1 -55.118-19.685 567.178 567.178 0 0 0 50.432-29.415q10.537-6.891 20.688-14.19a368.316 368.316 0 0 1 -15.998 63.291zm-147.468 0a368.421 368.421 0 0 1 -16-63.291q10.128 7.275 20.689 14.19a566.986 566.986 0 0 0 50.432 29.416 413.069 413.069 0 0 1 -55.117 19.686zm0-284.112a412.988 412.988 0 0 1 55.118 19.685 567.178 567.178 0 0 0 -50.432 29.415q-10.538 6.891-20.688 14.19a368.316 368.316 0 0 1 16.006-63.289zm13.442 221.62c-11.216-7.334-22.14-15.059-32.532-22.988a505.5 505.5 0 0 1 0-113.152c10.392-7.929 21.317-15.655 32.532-22.989a544.9 544.9 0 0 1 60.296-34.218 544.7 544.7 0 0 1 60.292 34.22c11.216 7.334 22.14 15.059 32.532 22.988a501.517 501.517 0 0 1 3.176 56.576 501.451 501.451 0 0 1 -3.176 56.576c-10.392 7.929-21.317 15.655-32.532 22.989a544.9 544.9 0 0 1 -60.292 34.219 544.7 544.7 0 0 1 -60.292-34.22zm-49.965-36.889a431.841 431.841 0 0 1 -44.628-42.674 432.351 432.351 0 0 1 44.633-42.68c-1.15 14.043-1.744 28.328-1.744 42.68s.594 28.632 1.743 42.675zm183.995-184.73a368.421 368.421 0 0 1 16 63.291q-10.128-7.275-20.689-14.19a566.986 566.986 0 0 0 -50.432-29.416 413.069 413.069 0 0 1 55.121-19.685zm36.523 99.381a431.841 431.841 0 0 1 44.632 42.675 432.351 432.351 0 0 1 -44.633 42.68c1.15-14.043 1.744-28.328 1.744-42.68s-.594-28.632-1.743-42.675zm-38.257-149.325a16 16 0 1 1 -16-16 16.019 16.019 0 0 1 16 16zm-72-32c10.468 0 20.791 4.158 30.772 12.349a31.98 31.98 0 0 0 35.094 50.087q1.014 2.239 2 4.53a444.147 444.147 0 0 0 -67.866 25.517 444.153 444.153 0 0 0 -67.877-25.522c18.239-42.685 42.711-66.961 67.877-66.961zm-199.63 94.07c16.505-22 57.39-27.818 110.3-16.016-8.45 24.024-14.817 51.694-18.575 80.807a465.419 465.419 0 0 0 -57.494 52.9c-39.607-48.349-52.768-92.981-34.231-117.691zm7.63 153.93a16 16 0 1 1 -16 16 16.019 16.019 0 0 1 16-16zm-7.629 105.931c-12.957-17.282-8.8-40.6-1.618-59.3a31.985 31.985 0 0 0 31.777-53.331q1.99-2.535 4.069-5.068a464.756 464.756 0 0 0 57.494 52.9c3.758 29.113 10.125 56.789 18.577 80.817-52.907 11.799-93.794 5.985-110.299-16.018zm199.629 94.069c-25.166 0-49.638-24.276-67.877-66.962a444.014 444.014 0 0 0 67.877-25.521 444.27 444.27 0 0 0 67.877 25.522c-18.239 42.685-42.711 66.961-67.877 66.961zm128-48a16 16 0 1 1 16-16 16.019 16.019 0 0 1 -16 16zm71.627-46.067c-8.1 10.81-22.207 17.886-41.033 20.686a32 32 0 0 0 -60.183-2.79q-4.485-.852-9.08-1.885c8.45-24.023 14.816-51.693 18.574-80.805a465.329 465.329 0 0 0 57.494-52.9c39.607 48.349 52.767 92.981 34.228 117.694z"/><path d="m256 192a64 64 0 1 0 64 64 64.072 64.072 0 0 0 -64-64zm0 112a48 48 0 1 1 48-48 48.055 48.055 0 0 1 -48 48z"/></svg>