<?xml version="1.0" encoding="iso-8859-1"?>
<!-- Generator: Adobe Illustrator 19.0.0, SVG Export Plug-In . SVG Version: 6.00 Build 0)  -->
<svg version="1.1" id="Layer_1" xmlns="http://www.w3.org/2000/svg" xmlns:xlink="http://www.w3.org/1999/xlink" x="0px" y="0px"
	 viewBox="0 0 512 512" style="enable-background:new 0 0 512 512;" xml:space="preserve">
<circle style="fill:#E21B1B;" cx="256" cy="256" r="256"/>
<path style="fill:#C40606;" d="M508.576,297.664L356.072,145.168c0,0-72.744-12.496-150.072,0
	c-77.336,12.496-70.664,95.504-70.664,95.504l14.384,120.232l147.712,147.712C405.536,491.016,490.88,405.736,508.576,297.664z"/>
<path style="fill:#FFFFFF;" d="M256,146.664c60.288,0,109.336,49.048,109.336,109.336S316.288,365.336,256,365.336
	S146.664,316.288,146.664,256S195.712,146.664,256,146.664 M256,106.664c-82.472,0-149.336,66.856-149.336,149.336
	S173.528,405.336,256,405.336S405.336,338.472,405.336,256S338.472,106.664,256,106.664L256,106.664z"/>
<g>
</g>
<g>
</g>
<g>
</g>
<g>
</g>
<g>
</g>
<g>
</g>
<g>
</g>
<g>
</g>
<g>
</g>
<g>
</g>
<g>
</g>
<g>
</g>
<g>
</g>
<g>
</g>
<g>
</g>
</svg>
