<svg id="Layer_1" enable-background="new 0 0 510 510" height="512" viewBox="0 0 510 510" width="512" xmlns="http://www.w3.org/2000/svg"><g id="XMLID_1662_"><path id="XMLID_1796_" d="m255 135 15-15-15-15c-133.748 0-199.876 162.156-106.017 256.016 27.162 27.162 64.662 43.984 106.017 43.984l15-15-15-15c-33.084 0-63.084-13.458-84.814-35.187-75.07-75.071-22.22-204.813 84.814-204.813z" fill="#ff641a"/><path id="XMLID_1795_" d="m405 255c0-82.708-67.287-150-150-150v30c66.166 0 120 53.83 120 120 0 66.166-53.83 120-120 120v30c82.707 0 150-67.288 150-150z" fill="#f03800"/><path id="XMLID_1793_" d="m240 60v121.507l7.5 13.493 7.5-15 7.5-52.5-7.5-67.5c-5.246 0-9.754 0-15 0z" fill="#f03800"/><path id="XMLID_1792_" d="m270 60c-5.246 0-9.754 0-15 0v120l7.5 15 7.5-13.493c0-25.621 0-95.888 0-121.507z" fill="#cd0000"/><path id="XMLID_1791_" d="m240 328.492v121.508h15l7.5-67.5-7.5-52.5-7.5-15z" fill="#f03800"/><path id="XMLID_1790_" d="m270 328.289-7.5-13.289-7.5 15v120h15c0-25.744 0-96.121 0-121.711z" fill="#cd0000"/><path id="XMLID_1784_" d="m181.508 270c-25.621 0-95.889 0-121.508 0 0-10.492 0-19.508 0-30h121.508l13.492 15z" fill="#f03800"/><path id="XMLID_1788_" d="m328.493 270h121.507c0-10.492 0-19.508 0-30-25.568 0-95.816 0-121.388 0l-13.612 15z" fill="#cd0000"/><path id="XMLID_1786_" d="m30 255c0-124.062 100.932-225 225-225l15-15-15-15c-140.551 0-255 113.602-255 255 0 139.553 112.709 255 255 255l15-15-15-15c-124.062 0-225-100.932-225-225z" fill="#ff641a"/><path id="XMLID_1775_" d="m510 255c0-140.934-114.053-255-255-255v30c124.062 0 225 100.932 225 225 0 124.062-100.932 225-225 225v30c140.552 0 255-113.601 255-255z" fill="#f03800"/><path id="XMLID_1760_" d="m201.992 308.008c13.58 13.581 32.33 21.992 53.008 21.992l15-75-15-75c-66.874 0-99.938 81.079-53.008 128.008z" fill="#ff641a"/><path id="XMLID_1684_" d="m330 255c0-41.354-33.644-75-75-75v150c41.354 0 75-33.644 75-75z" fill="#f03800"/><path id="XMLID_1679_" d="m223.195 286.805c8.149 8.148 19.399 13.195 31.805 13.195l15-45-15-45c-40.125 0-59.963 48.647-31.805 76.805z" fill="#f03800"/><path id="XMLID_1663_" d="m286.805 223.195c-8.149-8.148-19.399-13.195-31.805-13.195v90c40.123 0 59.964-48.646 31.805-76.805z" fill="#cd0000"/></g></svg>