<?xml version="1.0" encoding="iso-8859-1"?>
<!-- Generator: Adobe Illustrator 19.0.0, SVG Export Plug-In . SVG Version: 6.00 Build 0)  -->
<svg version="1.1" id="Capa_1" xmlns="http://www.w3.org/2000/svg" xmlns:xlink="http://www.w3.org/1999/xlink" x="0px" y="0px"
	 viewBox="0 0 511.925 511.925" style="enable-background:new 0 0 511.925 511.925;" xml:space="preserve">
<polygon style="fill:#FAD06A;" points="405.175,306.525 405.175,368.925 242.975,368.925 242.975,306.525 36.375,306.525 
	36.375,445.025 493.075,445.025 493.075,306.525 "/>
<g>
	<path style="fill:#19B791;" d="M246.975,172.925c14.3,0,25.8,11.6,25.8,25.8v0.1c0,14.3-11.6,25.8-25.8,25.8h-4v144.3h162.1v-196
		H246.975z"/>
	<polyline style="fill:#19B791;" points="285.875,264.525 324.075,295.625 368.475,227.725 	"/>
</g>
<path d="M324.075,305.625c-2.3,0-4.5-0.8-6.3-2.2l-38.2-31.1c-4.3-3.5-4.9-9.8-1.4-14.1c3.5-4.3,9.8-4.9,14.1-1.4l29.6,24.1
	l38.3-58.6c3-4.6,9.2-5.9,13.8-2.9c4.6,3,5.9,9.2,2.9,13.8l-44.4,67.9c-1.6,2.4-4,4-6.8,4.4
	C325.075,305.625,324.575,305.625,324.075,305.625z"/>
<path style="fill:#FFD3AE;" d="M247.075,172.925h77.1l-71.5-71.5c-8.8-8.8-21.1-13-33.5-11.4l-67.9,8.9l-28.6,28.6l-31.2,31.2l53,53
	c7.9,7.9,18.5,12.3,29.7,12.4l72.8,0.6c14.3,0,25.8-11.6,25.8-25.8v-0.1C272.875,184.525,261.275,172.925,247.075,172.925z"/>
<path d="M168.575,182.925c-0.6,0-1.3-0.1-1.9-0.2c-0.6-0.1-1.3-0.3-1.9-0.6c-0.6-0.3-1.2-0.6-1.7-0.9c-0.6-0.4-1.1-0.8-1.5-1.2
	c-0.5-0.5-0.9-1-1.2-1.5c-0.4-0.6-0.7-1.1-0.9-1.7c-0.2-0.6-0.4-1.2-0.6-1.9s-0.2-1.3-0.2-1.9c0-0.7,0.1-1.3,0.2-2
	c0.1-0.6,0.3-1.3,0.6-1.9s0.6-1.2,0.9-1.7c0.4-0.6,0.8-1.1,1.2-1.5c0.5-0.5,1-0.9,1.5-1.2c0.5-0.4,1.1-0.7,1.7-0.9
	c0.6-0.3,1.2-0.4,1.9-0.6c1.3-0.3,2.6-0.3,3.9,0c0.6,0.1,1.3,0.3,1.9,0.6c0.6,0.3,1.2,0.6,1.7,0.9c0.6,0.4,1.1,0.8,1.5,1.2
	c0.5,0.5,0.9,1,1.3,1.5s0.7,1.1,0.9,1.7c0.3,0.6,0.4,1.2,0.6,1.9c0.1,0.6,0.2,1.3,0.2,2c0,0.6-0.1,1.3-0.2,1.9s-0.3,1.3-0.6,1.9
	s-0.6,1.2-0.9,1.7c-0.4,0.5-0.8,1.1-1.3,1.5c-0.5,0.5-1,0.9-1.5,1.2c-0.5,0.4-1.1,0.7-1.7,0.9c-0.6,0.3-1.2,0.4-1.9,0.6
	C169.875,182.825,169.275,182.925,168.575,182.925z"/>
<rect x="46.653" y="18.291" transform="matrix(-0.7071 -0.7071 0.7071 -0.7071 86.9136 180.0825)" style="fill:#2C4D77;" width="68.199" height="107.499"/>
<rect x="99.672" y="55.016" transform="matrix(-0.7071 -0.7071 0.7071 -0.7071 123.0863 268.1155)" style="fill:#C0E8F4;" width="34.8" height="107.099"/>
<path d="M112.475,378.925c-0.7,0-1.3-0.1-1.9-0.2c-0.6-0.1-1.3-0.3-1.9-0.6s-1.2-0.6-1.7-0.9c-0.6-0.4-1.1-0.8-1.5-1.2
	c-0.5-0.5-0.9-1-1.2-1.5c-0.4-0.5-0.7-1.1-0.9-1.7c-0.3-0.6-0.4-1.2-0.6-1.9c-0.1-0.6-0.2-1.3-0.2-2c0-0.6,0.1-1.3,0.2-2
	c0.1-0.7,0.3-1.3,0.6-1.9c0.3-0.6,0.6-1.2,0.9-1.7c0.4-0.5,0.8-1.1,1.2-1.5s1-0.9,1.5-1.2c0.5-0.4,1.1-0.7,1.7-0.9
	c0.6-0.3,1.2-0.4,1.9-0.6c1.3-0.3,2.6-0.3,3.9,0c0.6,0.1,1.3,0.3,1.9,0.6c0.6,0.3,1.2,0.6,1.7,0.9c0.6,0.4,1.1,0.8,1.5,1.2
	s0.9,1,1.2,1.5c0.4,0.5,0.7,1.1,0.9,1.7c0.3,0.6,0.4,1.2,0.6,1.9c0.1,0.6,0.2,1.3,0.2,2c0,0.6-0.1,1.3-0.2,2
	c-0.1,0.6-0.3,1.3-0.6,1.9c-0.3,0.6-0.6,1.2-0.9,1.7c-0.4,0.5-0.8,1.1-1.2,1.5C117.675,377.825,115.075,378.925,112.475,378.925z"/>
<rect x="36.375" y="445.025" style="fill:#DC9E5E;" width="456.7" height="56.9"/>
<path d="M493.075,296.525h-77.9v-123.6c0-5.5-4.5-10-10-10h-76.8l-68.6-68.6c-10.9-10.9-26.5-16.2-41.8-14.2l-41,5.4
	c0.9-3.3,0-7-2.6-9.6l-22.7-22.7c-0.4-0.8-1-1.5-1.6-2.1l-48.2-48.2c-3.9-3.9-10.2-3.9-14.1,0l-76,76c-3.9,3.9-3.9,10.2,0,14.1
	l48.1,48.2l0,0l24.6,24.6l53,53c9.8,9.8,22.8,15.2,36.7,15.4l58.9,0.5v61.9h-196.7c-5.5,0-10,4.5-10,10v195.3c0,5.5,4.5,10,10,10
	h456.7c5.5,0,10-4.5,10-10v-195.4C503.075,301.025,498.575,296.525,493.075,296.525z M395.175,306.525v52.4h-142.2v-52.4v-72.3
	c0.2,0,0.5-0.1,0.7-0.1s0.4-0.1,0.6-0.1c0.4-0.1,0.7-0.2,1.1-0.3c0.2,0,0.4-0.1,0.6-0.1c0.5-0.1,1-0.3,1.4-0.4c0.1,0,0.1,0,0.2,0
	c0.5-0.2,1.1-0.3,1.6-0.5c0.2-0.1,0.3-0.1,0.5-0.2c0.4-0.1,0.7-0.3,1.1-0.4c0.2-0.1,0.4-0.2,0.6-0.3c0.3-0.1,0.6-0.3,0.9-0.4
	c0.2-0.1,0.4-0.2,0.6-0.3c0.3-0.1,0.6-0.3,0.9-0.5c0.2-0.1,0.4-0.2,0.6-0.3c0.3-0.2,0.6-0.3,0.8-0.5c0.2-0.1,0.4-0.2,0.6-0.4
	c0.3-0.2,0.6-0.3,0.8-0.5c0.2-0.1,0.4-0.2,0.6-0.4c0.3-0.2,0.6-0.4,0.8-0.6c0.2-0.1,0.3-0.2,0.5-0.4c0.3-0.2,0.6-0.5,0.9-0.7
	c0.1-0.1,0.3-0.2,0.4-0.3c0.4-0.3,0.8-0.7,1.2-1.1c0.1-0.1,0.1-0.1,0.2-0.2c0.3-0.3,0.7-0.6,1-1c0.1-0.1,0.3-0.3,0.4-0.4
	c0.2-0.3,0.5-0.5,0.7-0.8c0.1-0.2,0.3-0.3,0.4-0.5c0.2-0.2,0.4-0.5,0.6-0.7c0.1-0.2,0.3-0.4,0.4-0.5c0.2-0.3,0.4-0.5,0.6-0.8
	c0.1-0.2,0.3-0.4,0.4-0.6c0.2-0.3,0.4-0.5,0.6-0.8c0.1-0.2,0.3-0.4,0.4-0.6c0.2-0.3,0.4-0.6,0.5-0.8c0.1-0.2,0.2-0.4,0.4-0.6
	c0.2-0.3,0.4-0.6,0.5-0.9c0.1-0.2,0.2-0.3,0.3-0.5c0.2-0.4,0.4-0.8,0.6-1.1c0.1-0.1,0.1-0.2,0.2-0.3c0.2-0.5,0.5-1,0.7-1.5
	c0.1-0.1,0.1-0.3,0.2-0.4c0.2-0.4,0.3-0.7,0.4-1.1c0.1-0.2,0.1-0.4,0.2-0.6c0.1-0.3,0.2-0.7,0.3-1c0.1-0.2,0.1-0.4,0.2-0.7
	c0.1-0.3,0.2-0.6,0.3-1c0.1-0.2,0.1-0.5,0.2-0.7c0.1-0.3,0.2-0.6,0.2-1c0.1-0.2,0.1-0.5,0.1-0.7c0.1-0.3,0.1-0.7,0.2-1
	c0-0.2,0.1-0.5,0.1-0.7c0-0.3,0.1-0.7,0.1-1c0-0.2,0.1-0.4,0.1-0.7c0-0.4,0.1-0.8,0.1-1.2c0-0.2,0-0.4,0-0.6c0-0.6,0-1.2,0-1.8v-0.1
	c0-0.7,0-1.3-0.1-2c0-0.2,0-0.4,0-0.6c0-0.4-0.1-0.9-0.1-1.3c0-0.2-0.1-0.5-0.1-0.7c-0.1-0.4-0.1-0.8-0.2-1.2c0-0.3-0.1-0.5-0.1-0.8
	c-0.1-0.4-0.2-0.8-0.2-1.2c-0.1-0.2-0.1-0.5-0.2-0.7c-0.1-0.4-0.2-0.8-0.3-1.2c-0.1-0.2-0.1-0.4-0.2-0.7c-0.1-0.4-0.3-0.9-0.4-1.3
	c-0.1-0.2-0.1-0.3-0.2-0.5c-0.2-0.6-0.4-1.2-0.7-1.8c0-0.1-0.1-0.2-0.2-0.3c-0.2-0.5-0.4-0.9-0.6-1.4c0,0,0-0.1-0.1-0.1h45h71
	L395.175,306.525L395.175,306.525z M94.675,24.025l34.1,34.1l-30.3,30.3l-31.6,31.6l-34-34.1L94.675,24.025z M142.675,72.525
	l10.5,10.5l-61.6,61.6l-10.5-10.5L142.675,72.525z M151.575,204.625l-45.9-45.9l15.7-15.7l34.6-34.6l64.5-8.5
	c9.2-1.2,18.5,2,25.1,8.5l54.4,54.4h-53h-38.9c-5.5,0-10,4.5-10,10s4.5,10,10,10h38.9c8.7,0,15.8,7.1,15.8,15.8v0.1
	c0,2.7-0.7,5.3-1.9,7.5c-2.7,4.9-7.9,8.3-13.9,8.3l-72.8-0.6C165.675,214.125,157.675,210.725,151.575,204.625z M46.375,316.525
	h186.7v42.4h-85.6c-5.5,0-10,4.5-10,10s4.5,10,10,10h269.4c5.5,0,10-4.5,10-10s-4.5-10-10-10h-1.8v-42.4h67.9v118.5h-436.6V316.525z
	 M483.075,491.925h-436.7v-36.9h436.7V491.925L483.075,491.925z"/>
<g>
</g>
<g>
</g>
<g>
</g>
<g>
</g>
<g>
</g>
<g>
</g>
<g>
</g>
<g>
</g>
<g>
</g>
<g>
</g>
<g>
</g>
<g>
</g>
<g>
</g>
<g>
</g>
<g>
</g>
</svg>
